<svg width="479" height="164" viewBox="0 0 479 164" fill="none" xmlns="http://www.w3.org/2000/svg">
<g clip-path="url(#clip0_1_2)">
<path d="M95.2 12.19H92.92V30.19H95.26C99.39 30.19 102.57 26.16 102.47 21.19C102.47 16.26 99.39 12.19 95.21 12.19H95.2Z" fill="black"/>
<path d="M156.57 12.29H151.95V21.09H156.57C158.76 21.09 160.56 19.1 160.56 16.66C160.56 14.22 158.77 12.29 156.57 12.29Z" fill="black"/>
<path d="M74.62 12.29H69.99V21.09H74.62C76.86 21.09 78.69 19.1 78.6 16.66C78.6 14.28 76.81 12.29 74.62 12.29Z" fill="black"/>
<path d="M47.81 11.75C42.59 11.75 38.37 15.97 38.37 21.2C38.37 26.43 42.6 30.65 47.81 30.65C53.02 30.65 57.26 26.42 57.26 21.2C57.26 15.98 53.04 11.75 47.81 11.75Z" fill="black"/>
<path d="M182.04 11.75C176.81 11.75 172.59 15.97 172.59 21.2C172.59 26.43 176.81 30.65 182.04 30.65C187.27 30.65 191.48 26.42 191.48 21.2C191.48 15.98 187.26 11.75 182.04 11.75Z" fill="black"/>
<path d="M0 0V42.76H233.54V0H0ZM29.41 34.47L14.34 18.16L14.24 18.01V33.87H10.36V8.01L25.58 24.67V8.51H29.41V34.47V34.47ZM47.81 34.52C40.45 34.52 34.48 28.5 34.48 21.19C34.48 13.88 40.5 7.86 47.81 7.86C55.12 7.86 61.09 13.83 61.14 21.19C61.14 28.55 55.12 34.52 47.81 34.52ZM79.63 33.92L73.77 25.06V25.02H69.98V33.92H66.1V8.56H75C79.13 8.56 82.51 12.19 82.51 16.76C82.51 19.45 81.27 22.03 79.18 23.57C78.84 23.87 78.44 24.07 77.98 24.32L77.94 24.36L84.25 33.92H79.62H79.63ZM95.35 33.86H89.08V8.51H95.35C101.42 8.51 106.33 14.22 106.33 21.19C106.33 28.16 101.46 33.87 95.35 33.87V33.86ZM121.7 32.17C120.46 33.46 118.72 34.21 116.78 34.31H116.68C111.46 34.31 109.67 30.13 109.37 29.29L112.65 27.7L112.8 28C113.35 28.99 114.29 30.69 116.73 30.69H116.88C117.73 30.69 118.32 30.39 118.87 29.79C119.47 29.09 119.77 28.2 119.72 27.25C119.57 25.96 118.92 24.86 117.33 23.57L114.5 21.03C111.91 18.89 110.67 16.9 110.57 14.71C110.47 12.87 111.02 11.23 112.21 10.04C113.35 8.9 114.95 8.2 116.79 8.1C119.97 7.95 122.41 10.19 122.91 11.03H122.96L119.88 13.12L119.83 13.07C118.79 11.48 116.85 11.73 116.85 11.73C115.31 11.78 114.36 12.87 114.36 14.32C114.36 15.61 115.01 16.76 116.3 17.75L119.33 20.39C122.81 23.22 123.46 25.81 123.51 27.15C123.61 29.04 122.96 30.83 121.72 32.17H121.7ZM142.89 12.08H136.82V33.86H132.84V12.04H126.77V8.51H142.88V12.09L142.89 12.08ZM161.59 33.92L155.72 25.06V25.02H151.94V33.92H148.05V8.56H156.95C161.08 8.56 164.47 12.19 164.47 16.76C164.47 19.45 163.22 22.03 161.14 23.57C160.79 23.87 160.39 24.07 159.94 24.32L159.88 24.36L166.2 33.92H161.57H161.59ZM182.03 34.52C174.67 34.52 168.7 28.5 168.7 21.19C168.7 13.88 174.72 7.86 182.03 7.86C189.34 7.86 195.31 13.83 195.36 21.19C195.36 28.55 189.34 34.52 182.03 34.52ZM223.06 33.87H219.23V19.95L211.72 30L204.21 19.95V33.87H200.38V8.01L211.67 23.38L223.06 8.01V33.87V33.87Z" fill="black"/>
<path d="M118.1 161.74H64.08L58.46 124.59H52.39V161.74H0V50.75H86.13C101.82 50.75 112.77 61.7 112.77 77.39V81.68C112.77 98.4 102.71 106.54 86.28 108.17L70.89 109.65V114.39L87.76 114.98C102.56 115.57 111.88 119.57 113.66 131.85L118.1 161.74ZM52.39 101.07H60.38V78.13H52.39V101.07ZM233.54 161.75H186.48V143.84H181.74C178.34 153.76 172.42 163.67 157.62 163.67H147.41C131.72 163.67 120.77 152.72 120.77 137.03V121.19C120.77 105.5 131.72 94.55 147.41 94.55H181.15V77.68H173.16V87.74H120.77V77.38C120.77 61.69 131.72 50.74 147.41 50.74H206.9C222.59 50.74 233.54 61.69 233.54 77.38V161.74V161.75ZM181.15 105.66H173.16V132H181.15V105.66ZM241.53 77.39C241.53 61.7 252.48 50.75 268.17 50.75H327.66C343.35 50.75 354.3 61.7 354.3 77.39V102.55H301.91V77.98H293.92V134.81H301.91V109.35H354.3V135.1C354.3 150.79 343.35 161.74 327.66 161.74H268.17C252.48 161.74 241.53 150.79 241.53 135.1V77.38V77.39ZM477.88 161.75H425.64L419.28 118.83H414.69V161.75H362.3V50.75H414.69V94.56H419.28L425.64 50.75H478.33L473.89 81.53C471.82 96.33 461.75 102.69 447.25 103.43L432.6 104.17V108.76L446.96 109.35C462.94 110.09 471.08 115.12 473.15 129.48L477.89 161.74L477.88 161.75Z" fill="black"/>
</g>
<defs>
<clipPath id="clip0_1_2">
<rect width="478.32" height="163.67" fill="white"/>
</clipPath>
</defs>
</svg>
